<?xml version="1.0" encoding="UTF-8" standalone="no" ?>
<!DOCTYPE svg PUBLIC "-//W3C//DTD SVG 1.1//EN" "http://www.w3.org/Graphics/SVG/1.1/DTD/svg11.dtd">
<svg xmlns="http://www.w3.org/2000/svg" xmlns:xlink="http://www.w3.org/1999/xlink" version="1.1" width="1280" height="1024" viewBox="0 0 1280 1024" xml:space="preserve">
<desc>Created with Fabric.js 4.4.0</desc>
<defs>
</defs>
<g transform="matrix(1 0 0 1 640 512)" id="background-logo"  >
<rect style="stroke: none; stroke-width: 0; stroke-dasharray: none; stroke-linecap: butt; stroke-dashoffset: 0; stroke-linejoin: miter; stroke-miterlimit: 4; fill: rgb(255,255,255); fill-opacity: 0; fill-rule: nonzero; opacity: 1;"  paint-order="stroke"  x="-640" y="-512" rx="0" ry="0" width="1280" height="1024" />
</g>
<g transform="matrix(1.9211538461538462 0 0 1.9211538461538462 656.7281275253273 622.7577148509566)" id="text-logo"  >
<g style=""  paint-order="stroke"   >
		<g transform="matrix(1 0 0 1 0 0)" id="text-logo-path-0"  >
<path style="stroke: none; stroke-width: 1.7504382033403258; stroke-dasharray: none; stroke-linecap: butt; stroke-dashoffset: 0; stroke-linejoin: miter; stroke-miterlimit: 4; fill: rgb(155,225,243); fill-rule: nonzero; opacity: 1;"  paint-order="stroke"  transform=" translate(-255.32933378711658, 8.74055072351942)" d="M 101.88 -51.46 C 127.29 -77.09 151.87 -102.72 152.08 -103.14 C 153.97 -104.82 153.76 -107.76 152.08 -109.44 C 150.19 -111.33 147.25 -111.33 145.57 -109.44 C 145.36 -109.23 121.41 -84.23 96.41 -59.23 C 70.79 -33.19 56.71 -19.74 49.15 -13.02 C 68.69 -69.32 90.53 -130.23 90.95 -131.28 C 91.79 -133.59 90.53 -136.32 88.22 -137.16 C 85.91 -138 83.18 -136.74 82.34 -134.43 C 79.61 -126.87 16.59 48.31 10.71 75.83 C 10.08 78.35 11.55 80.87 14.07 81.29 C 14.49 81.5 14.7 81.5 15.12 81.5 C 17.22 81.5 19.11 80.03 19.53 77.93 C 21.64 68.27 31.3 38.86 42.85 5.25 C 56.29 16.38 100.62 51.88 123.93 56.5 C 124.35 56.71 124.56 56.71 124.98 56.71 C 127.08 56.71 128.97 55.03 129.39 52.93 C 129.81 50.41 128.34 48.1 125.82 47.47 C 118.68 46.21 104.4 40.12 76.46 19.74 C 65.12 11.34 55.24 3.36 49.57 -1.26 C 56.29 -6.51 70.16 -19.53 101.88 -51.46 Z M 200.18 -24.37 C 198.08 -25.84 195.35 -25.42 193.88 -23.32 C 181.91 -6.3 174.55 -2.1 170.77 -1.05 C 170.98 -2.94 171.61 -7.35 174.55 -15.75 C 176.23 -20.38 177.91 -24.37 178.96 -26.89 L 180.23 -29.83 C 180.86 -32.14 179.81 -34.66 177.49 -35.5 C 175.18 -36.34 172.66 -35.29 171.61 -32.98 C 171.61 -32.98 171.19 -32.14 170.56 -30.67 L 169.51 -28.78 C 168.04 -30.04 165.1 -32.56 160.9 -32.56 C 155.23 -32.56 149.35 -28.36 144.52 -21.01 C 140.32 -15.12 137.79 -7.98 137.79 -2.94 C 137.79 -0.84 138.42 1.26 139.26 2.73 C 140.74 4.62 143.05 5.88 145.57 5.88 C 149.98 5.88 155.44 2.52 161.95 -3.99 C 161.32 0.21 161.74 3.15 163 5.25 C 164.47 7.14 166.57 8.4 169.09 8.4 C 178.12 8.4 188.84 -0.21 201.44 -18.06 C 202.7 -20.17 202.28 -22.9 200.18 -24.37 Z M 147.04 -3.78 C 147.25 -6.51 149.14 -11.97 152.71 -16.8 C 155.65 -20.8 158.8 -23.32 160.9 -23.32 C 161.74 -23.32 162.58 -22.69 163.21 -22.06 L 164.05 -20.8 C 162.79 -19.11 161.32 -17.22 159.85 -15.33 C 153.34 -7.98 149.14 -4.83 147.04 -3.78 Z M 278.11 -25 C 275.8 -25.84 273.07 -24.79 272.23 -22.48 C 272.23 -22.48 270.13 -17.85 266.56 -13.02 C 263.62 -9.24 258.99 -4.62 253.74 -4.62 C 253.74 -6.72 255.63 -11.76 256.68 -14.49 C 259.2 -21.64 261.31 -27.52 258.36 -31.93 C 257.73 -32.98 255.63 -34.87 251.85 -34.87 C 246.6 -34.87 240.09 -30.88 232.11 -22.27 L 236.73 -35.29 C 237.57 -37.6 236.31 -40.33 233.79 -41.17 C 231.48 -42.01 228.96 -40.75 228.12 -38.23 L 214.04 1.05 C 213.41 3.15 214.25 5.67 216.35 6.72 C 216.98 6.93 217.82 7.14 218.45 7.14 C 219.93 7.14 221.4 6.51 222.24 5.04 C 222.24 5.04 227.7 -3.15 234.42 -10.92 C 243.24 -21.64 248.28 -24.58 250.59 -25.42 C 249.96 -23.32 248.91 -19.95 248.07 -17.64 C 245.34 -10.5 242.82 -3.57 246.18 1.05 C 247.23 2.73 249.33 4.62 253.53 4.62 C 270.34 4.62 280.21 -17.85 280.63 -18.9 C 281.68 -21.22 280.42 -23.95 278.11 -25 Z M 333.35 -21.43 C 337.13 -25.84 340.29 -30.25 337.97 -34.03 C 336.08 -37.18 331.88 -38.23 324.74 -37.39 C 318.44 -36.76 301.01 -32.77 298.06 -23.74 C 297.22 -21.43 298.48 -18.69 300.8 -17.85 C 303.32 -17.22 305.84 -18.48 306.68 -20.8 C 306.89 -21.22 307.94 -22.69 311.72 -24.37 C 316.76 -26.89 323.27 -28.15 327.26 -28.36 C 325.16 -25.84 320.96 -21.22 313.19 -13.44 C 305.42 -5.88 297.64 0.84 297.64 1.05 C 296.38 2.1 295.75 3.99 296.38 5.88 C 296.8 7.56 298.27 8.82 300.17 9.03 C 305.63 9.66 309.41 12.6 311.93 18.06 C 314.45 23.32 315.29 31.09 314.87 40.33 C 314.03 55.24 309.41 73.1 302.48 88.22 C 295.96 101.88 289.66 109.02 285.67 110.49 C 285.25 108.81 284.83 105.66 285.46 100.2 C 286.09 93.68 287.56 85.49 289.87 77.51 C 295.33 58.6 303.95 43.06 312.56 35.92 C 314.66 34.45 314.87 31.51 313.4 29.62 C 311.72 27.52 308.99 27.31 306.89 28.78 C 293.44 39.7 285.25 61.13 281.68 72.89 C 277.27 87.17 274.12 105.66 277.27 114.06 C 278.95 119.31 282.73 119.94 284.41 119.94 C 284.41 119.94 284.62 119.73 284.83 119.73 C 296.38 119.31 306.05 102.3 310.67 92 C 318.23 76.04 323.06 56.92 324.11 40.96 C 324.53 30.04 323.27 21.01 320.33 14.28 C 317.81 8.82 314.24 4.83 309.62 2.31 C 312.98 -0.63 317.39 -4.62 321.59 -8.82 C 326.63 -13.86 330.62 -18.06 333.35 -21.43 Z M 419.48 -24.16 C 417.58 -25.84 414.64 -25.63 412.96 -23.74 C 412.96 -23.53 396.58 -4.62 378.72 -4.62 C 376.62 -4.62 374.52 -5.04 374.52 -9.66 C 374.73 -9.66 374.94 -9.45 375.15 -9.45 C 381.67 -7.77 388.18 -9.87 392.38 -14.91 C 396.37 -19.53 397.42 -25.63 395.32 -30.04 C 393.64 -33.61 390.07 -35.71 385.66 -35.71 C 380.2 -35.71 374.94 -32.56 370.74 -26.47 C 367.38 -21.43 365.28 -15.12 365.28 -9.66 C 365.28 -5.88 366.33 -2.31 368.43 0 C 370.11 2.1 373.26 4.62 378.72 4.62 C 400.78 4.62 419.26 -16.8 420.11 -17.64 C 421.79 -19.53 421.37 -22.48 419.48 -24.16 Z M 376.62 -18.48 C 377.25 -19.32 377.67 -20.38 378.3 -21.22 C 380.62 -24.58 383.35 -26.68 385.66 -26.68 C 386.08 -26.68 386.92 -26.47 387.13 -26.26 C 387.55 -25.21 387.13 -22.9 385.45 -20.8 C 384.19 -19.32 381.67 -17.22 377.46 -18.27 C 377.25 -18.27 377.04 -18.48 376.62 -18.48 Z M 497.19 -25 C 494.88 -25.84 492.15 -24.79 491.31 -22.48 C 491.31 -22.48 489.21 -17.85 485.64 -13.02 C 482.7 -9.24 478.08 -4.62 472.83 -4.62 C 472.83 -6.72 474.72 -11.76 475.77 -14.49 C 478.29 -21.64 480.39 -27.52 477.45 -31.93 C 476.82 -32.98 474.72 -34.87 470.94 -34.87 C 465.69 -34.87 459.17 -30.88 451.19 -22.27 L 455.81 -35.29 C 456.65 -37.6 455.39 -40.33 452.87 -41.17 C 450.56 -42.01 448.04 -40.75 447.2 -38.23 L 433.13 1.05 C 432.5 3.15 433.34 5.67 435.44 6.72 C 436.07 6.93 436.91 7.14 437.54 7.14 C 439.01 7.14 440.48 6.51 441.32 5.04 C 441.32 5.04 446.78 -3.15 453.5 -10.92 C 462.33 -21.64 467.37 -24.58 469.68 -25.42 C 469.05 -23.32 468 -19.95 467.16 -17.64 C 464.43 -10.5 461.91 -3.57 465.27 1.05 C 466.32 2.73 468.42 4.62 472.62 4.62 C 489.42 4.62 499.29 -17.85 499.72 -18.9 C 500.77 -21.22 499.51 -23.95 497.19 -25 Z" stroke-linecap="round" />
</g>
</g>
</g>
</svg>